<?xml version="1.0" encoding="UTF-8"?>
<svg id="Layer_1" data-name="Layer 1" xmlns="http://www.w3.org/2000/svg" viewBox="0 0 861.28 873.91">
  <path d="m6.08,868.9c-.72-3.93-1.08-7.97-1.08-12.03,0-41.74,38.23-75.69,85.23-75.69.74,0,1.46-.33,1.93-.89.48-.56.7-1.31.57-2.04-1.06-6.14-1.6-12.49-1.6-18.85,0-60.78,49.45-110.23,110.23-110.23,0,0,58.29.4,58.3.4,1.36,0,2.48-1.09,2.5-2.46.02-1.37-1.06-2.5-2.44-2.54-21.8-.56-42.2-9.47-57.46-25.1-15.29-15.66-23.71-36.33-23.71-58.2,0-45.94,37.38-83.32,83.32-83.32h256.5c.67,0,1.31-.27,1.78-.74.47-.47.73-1.12.72-1.79-.32-30.72-1.6-150.47-1.91-179.61,0-.77-.37-1.5-.99-1.96-.44-.33-.97-.51-1.51-.51-.21,0-.43.03-.64.08-19.7,5.23-40.34,7.89-61.34,7.89-44.98,0-88.63-12.48-122.9-35.14-33.73-22.3-56.55-53.16-64.26-86.88-.26-1.14-1.27-1.94-2.44-1.94h-100.54c-.66,0-1.3.26-1.77.73l-88.55,88.55-28.83-28.83,83.56-83.56c.47-.47.73-1.1.73-1.77s-.26-1.3-.73-1.77L45.82,67.8l28.83-28.83,96.89,96.89c.47.47,1.1.73,1.77.73h90.09c1.23,0,2.27-.89,2.47-2.1C277.79,60.67,358.88,5,454.48,5c104.83,0,190.12,66.46,190.12,148.16,0,9.72-1.21,19.41-3.6,28.81-.28,1.11.23,2.27,1.24,2.82,19.29,10.39,34.06,28.32,40.54,49.19,3.73,12.01,3.77,21.81,3.78,25.04.37,98.84,0,215.27,0,216.44,0,.66.26,1.3.73,1.77s1.11.74,1.77.74c45.94,0,83.32,37.38,83.32,83.32,0,21.69-8.29,42.22-23.35,57.83-15.02,15.56-35.16,24.59-56.73,25.42-1.37.05-2.44,1.2-2.4,2.57.04,1.35,1.15,2.43,2.5,2.43.02,0,49.69-1.01,49.69-1.01l4.02-.08c60.73,0,110.18,49.45,110.18,110.23s-49.45,110.25-110.23,110.25H6.08ZM432.55,43.86c-26.09,0-47.32,21.23-47.32,47.32s21.23,47.32,47.32,47.32,47.32-21.23,47.32-47.32-21.23-47.32-47.32-47.32Z" style="fill: #444; stroke-width: 0px;"/>
  <path d="m454.48,7.5c103.45,0,187.62,65.34,187.62,145.66,0,9.51-1.19,19-3.53,28.19-.57,2.22.45,4.55,2.47,5.63,18.72,10.09,33.06,27.48,39.34,47.73,3.62,11.65,3.65,21.18,3.67,24.31.37,98.76,0,215.25,0,216.42,0,1.33.52,2.6,1.46,3.55s2.21,1.47,3.54,1.47c44.56,0,80.82,36.26,80.82,80.82,0,21.03-8.04,40.95-22.65,56.09-14.57,15.1-34.11,23.85-55.03,24.65-2.74.1-4.89,2.4-4.81,5.14.08,2.71,2.3,4.85,5,4.85.03,0,.07,0,.1,0l49.63-1.01,3.97-.08c59.38.02,107.68,48.34,107.68,107.73s-48.33,107.75-107.73,107.75H8.2c-.46-3.13-.7-6.32-.7-9.53,0-40.36,37.11-73.19,82.76-73.19,1.48,0,2.88-.65,3.83-1.78s1.35-2.62,1.1-4.07c-1.04-6-1.57-12.2-1.57-18.43,0-59.4,48.33-107.73,107.69-107.73l58.3.4s.02,0,.04,0c2.73,0,4.95-2.19,5-4.92.04-2.74-2.13-5.01-4.87-5.08-21.14-.54-40.94-9.19-55.74-24.35-14.83-15.19-23-35.24-23-56.46,0-44.56,36.26-80.82,80.82-80.82h256.5c1.34,0,2.61-.53,3.55-1.48.94-.95,1.46-2.23,1.45-3.57-.31-29.93-.63-59.87-.95-89.81-.32-29.94-.64-59.87-.95-89.8-.02-1.54-.74-2.99-1.97-3.93-.88-.67-1.95-1.02-3.03-1.02-.43,0-.86.06-1.28.17-19.49,5.18-39.91,7.8-60.7,7.8-44.5,0-87.66-12.33-121.52-34.73-33.19-21.95-55.64-52.26-63.21-85.35-.52-2.27-2.54-3.89-4.87-3.89h-100.54c-1.33,0-2.6.53-3.54,1.46l-86.78,86.78-25.29-25.29,81.79-81.79c1.95-1.95,1.95-5.12,0-7.07L49.35,67.8l25.29-25.29,95.12,95.12c.94.94,2.21,1.46,3.54,1.46h90.09c2.45,0,4.54-1.78,4.94-4.2C280.06,62.26,360.09,7.5,454.48,7.5m-21.93,133.5c27.47,0,49.82-22.35,49.82-49.82s-22.35-49.82-49.82-49.82-49.82,22.35-49.82,49.82,22.35,49.82,49.82,49.82M454.48,2.5c-98.12,0-179.09,57.38-191.09,131.59h-90.09L74.64,35.44l-32.36,32.36,84.69,84.69-85.32,85.32,32.36,32.36,90.32-90.32h100.54c16.11,70.47,94.88,123.96,189.6,123.96,21.68,0,42.53-2.8,61.98-7.97.63,59.86,1.28,119.75,1.91,179.61h-256.5c-47.39,0-85.82,38.43-85.82,85.82s37.25,84.62,83.61,85.8l-58.3-.4c-62.25,0-112.73,50.46-112.73,112.73,0,6.58.55,13.01,1.64,19.28h-.04c-48.46,0-87.73,35.01-87.73,78.19,0,4.96.51,9.82,1.53,14.53h742.03c62.25,0,112.73-50.48,112.73-112.75s-50.48-112.73-112.73-112.73l-4.02.08-49.64,1.01c45.85-1.75,82.48-39.48,82.48-85.74s-38.43-85.82-85.82-85.82c0,0,.38-116.46,0-216.45-.02-4.62-.27-14.12-3.89-25.77-6.78-21.83-21.95-39.98-41.75-50.65,2.42-9.52,3.68-19.36,3.68-29.43,0-83.21-86.24-150.66-192.62-150.66h0Zm-21.93,133.5c-24.75,0-44.82-20.06-44.82-44.82s20.06-44.82,44.82-44.82,44.82,20.06,44.82,44.82-20.06,44.82-44.82,44.82h0Z" style="fill: #444; stroke-width: 0px;"/>
</svg>